<?xml version="1.0" encoding="utf-8"?>
<!-- Generator: Adobe Illustrator 16.0.0, SVG Export Plug-In . SVG Version: 6.00 Build 0)  -->
<!DOCTYPE svg PUBLIC "-//W3C//DTD SVG 1.1//EN" "http://www.w3.org/Graphics/SVG/1.1/DTD/svg11.dtd">
<svg version="1.1" id="Layer_1" xmlns="http://www.w3.org/2000/svg" xmlns:xlink="http://www.w3.org/1999/xlink" x="0px" y="0px"
	 width="360px" height="360px" viewBox="0 0 360 360" style="enable-background:new 0 0 360 360;" xml:space="preserve">
<g>
	<path style="fill-rule:evenodd;clip-rule:evenodd;fill:#FCFCFC;" d="M330.642,140.621c-1.223,6.098-2.237,12.248-3.743,18.275
		c-0.976,3.907-1.674,8.809-4.351,11.079c-2.219,1.882-7.148,0.654-10.877,0.656c-44.457,0.02-88.913,0.032-133.37-0.041
		c-2.276-0.004-3.507,0.58-4.507,2.705c-3.048,6.479-6.352,12.838-9.854,19.839c-12.327-30.796-24.43-61.033-36.798-91.934
		c-3.362,10.052-6.498,19.399-9.614,28.752c-4.204,12.617-8.438,25.225-12.546,37.873c-0.677,2.083-1.557,2.893-3.882,2.88
		c-19.989-0.108-39.979-0.101-59.969-0.006c-2.15,0.01-3.033-0.697-3.781-2.641c-3.114-8.101-5.361-16.389-6.187-25.045
		c-0.077-0.809-0.365-1.596-0.555-2.393c0-5,0-10.001,0-15.001c0.196-0.794,0.481-1.576,0.576-2.381
		c2.652-22.65,11.953-42.083,29.517-56.712c24.053-20.034,51.018-24.968,80.046-11.985c16.924,7.57,28.652,21.072,37.943,36.806
		c0.59,0.999,1.19,1.991,1.833,3.063c2.882-4.412,5.306-8.553,8.161-12.372c2.921-3.906,6.07-7.684,9.456-11.195
		c22.531-23.363,55.077-29.829,83.918-16.346c22.131,10.346,36.58,27.759,44.079,50.821c2.194,6.75,3.04,13.939,4.504,20.926
		C330.642,131.037,330.642,135.828,330.642,140.621z"/>
	<path style="fill-rule:evenodd;clip-rule:evenodd;fill:#FCFCFC;" d="M162.147,236.005c1.842-3.666,3.427-6.81,5.002-9.957
		c5.914-11.808,11.845-23.607,17.712-35.438c0.749-1.511,1.452-2.452,3.422-2.449c41.029,0.068,82.06,0.058,123.09,0.066
		c0.205,0,0.411,0.055,1.145,0.159c-0.651,1.064-1.162,1.982-1.75,2.849c-10.062,14.816-22.031,28.031-35.287,39.944
		c-22.919,20.598-46.278,40.703-69.472,60.995c-7.522,6.582-15.1,13.102-22.656,19.646c-0.849,0.735-1.725,1.44-2.752,2.295
		c-6.967-6.035-13.801-11.948-20.627-17.869c-22.102-19.169-44.378-38.142-66.242-57.579
		c-16.049-14.268-31.077-29.581-43.254-47.434c-0.566-0.83-1.054-1.712-1.856-3.025c1.563,0,2.659,0,3.755,0
		c20.411,0,40.822-0.042,61.232,0.057c2.39,0.012,3.349-0.707,4.08-3.004c3.403-10.69,7.05-21.304,10.941-32.935
		C139.944,180.567,150.941,208.026,162.147,236.005z"/>
</g>
</svg>
